<svg
                            xmlns="http://www.w3.org/2000/svg"
                            viewBox="0 0 2250 2250"
                            className="icon logo"
                        >
                            <path d="M523.665 0c-194.01 0-351.303 157.274-351.303 351.322h1101.94c178.129 0 322.306 148.288 315.508 327.895-6.471 170.889-152.281 303.564-323.266 303.564H656.113c-29.938 0-45.858 35.334-26.04 57.763l1010.72 1143.99h410.583c22.583 0 34.605-26.654 19.626-43.572l-716.932-811.584c336.517-40.269 596.874-332.12 587.023-681.483C1930.876 285.069 1625.45-.002 1262.49-.002H523.666Z" />
                            <path d="M189.261 2068.21c0 100.331 81.456 181.787 181.787 181.787s181.787-81.456 181.787-181.787-81.456-181.787-181.787-181.787-181.787 81.456-181.787 181.787Z" />
                        </svg>